<svg width="12" height="19" fill="none" xmlns="http://www.w3.org/2000/svg"><path d="M9.598 1.777A5.604 5.604 0 007.734.53 5.763 5.763 0 005.625.125c-.715 0-1.418.135-2.11.404a5.604 5.604 0 00-1.863 1.248A5.604 5.604 0 00.404 3.641 5.763 5.763 0 000 5.75c0 .715.135 1.418.404 2.11a5.604 5.604 0 001.248 1.863l.616.685c.41.457.86 1.072 1.353 1.846.504.762.967 1.646 1.389 2.654.41 1.02.615 2.092.615 3.217 0-1.125.205-2.197.615-3.217a16.956 16.956 0 011.371-2.654c.504-.774.961-1.389 1.371-1.846l.616-.685a5.626 5.626 0 001.248-1.864 5.75 5.75 0 00.404-2.109c0-.715-.135-1.418-.404-2.11a5.604 5.604 0 00-1.248-1.863zM5.625 8a2.212 2.212 0 01-1.6-.65 2.212 2.212 0 01-.65-1.6c0-.621.217-1.148.65-1.582a2.182 2.182 0 011.6-.668c.621 0 1.148.223 1.582.668.445.434.668.96.668 1.582 0 .621-.223 1.154-.668 1.6-.434.433-.96.65-1.582.65z" fill="#FF9A31"/></svg>