<svg width="18" height="15" fill="none" xmlns="http://www.w3.org/2000/svg"><path d="M16.313.375H1.688C1.218.375.82.539.492.867A1.627 1.627 0 000 2.063v11.25c0 .468.164.867.492 1.195.328.328.727.492 1.196.492h14.624c.47 0 .868-.164 1.196-.492.328-.328.492-.727.492-1.195V2.063c0-.47-.164-.868-.492-1.196a1.627 1.627 0 00-1.195-.492zm-9.3 7.418L2.25 11.502V2.695l4.764 5.098zm-3.92-5.168h11.813L9 7.055l-5.906-4.43zM7.19 8.004L9 9.938l1.81-1.934 3.692 4.746H3.498L7.19 8.004zm3.797-.211l4.764-5.098v8.807l-4.764-3.709z" fill="#FF9A31"/></svg>