<svg width="18" height="19" fill="none" xmlns="http://www.w3.org/2000/svg"><path d="M11.584 13.291L7.875 9.6V4.625h2.25V8.65l3.041 3.059-1.582 1.582zM9 .125a8.758 8.758 0 00-3.498.703 9.036 9.036 0 00-2.883 1.934A8.975 8.975 0 00.703 5.627 8.758 8.758 0 000 9.125c0 1.242.234 2.408.703 3.498a9.186 9.186 0 001.916 2.883 9.186 9.186 0 002.883 1.916A8.76 8.76 0 009 18.125a8.759 8.759 0 003.498-.703 8.975 8.975 0 002.865-1.916 9.038 9.038 0 001.934-2.883A8.759 8.759 0 0018 9.125a8.76 8.76 0 00-.703-3.498 8.833 8.833 0 00-1.934-2.865A8.832 8.832 0 0012.498.828 8.758 8.758 0 009 .125zm0 15.75c-.938 0-1.81-.176-2.62-.527a6.986 6.986 0 01-2.161-1.442 6.984 6.984 0 01-1.442-2.162 6.497 6.497 0 01-.527-2.619c0-.938.176-1.81.527-2.62a6.773 6.773 0 013.604-3.603A6.497 6.497 0 019 2.375c.938 0 1.81.176 2.62.527a6.63 6.63 0 012.144 1.46 6.631 6.631 0 011.459 2.144c.351.808.527 1.681.527 2.619 0 .938-.176 1.81-.527 2.62a6.772 6.772 0 01-3.604 3.604A6.498 6.498 0 019 15.874z" fill="#FF9A31"/></svg>