<svg width="18" height="18" fill="none" xmlns="http://www.w3.org/2000/svg"><path d="M12.938 10.375c-.563.563-.938 1.078-1.126 1.547-.187.469-.562.703-1.124.703-.563 0-1.126-.234-1.688-.703a25.293 25.293 0 01-1.688-1.547 25.282 25.282 0 01-1.546-1.688c-.47-.562-.704-1.124-.704-1.687s.235-.938.704-1.125c.468-.188.984-.563 1.546-1.125.282-.281.317-.674.106-1.178a5.69 5.69 0 00-.95-1.494A8.294 8.294 0 005.099.795C4.605.432 4.218.25 3.938.25c-.282 0-.616.176-1.002.527-.387.352-.756.739-1.108 1.16-.351.422-.65.81-.896 1.16l-.37.528c0 .563.13 1.242.387 2.04.27.808.615 1.64 1.037 2.495.434.844.914 1.658 1.442 2.444.539.796 1.084 1.47 1.635 2.021.55.55 1.224 1.096 2.021 1.635.785.527 1.6 1.008 2.443 1.441a19.86 19.86 0 002.496 1.037c.797.258 1.477.387 2.04.387l.527-.37a17.67 17.67 0 001.16-.896c.422-.351.809-.72 1.16-1.107.352-.387.527-.72.527-1.002 0-.281-.181-.668-.544-1.16a8.294 8.294 0 00-1.284-1.371 5.692 5.692 0 00-1.494-.95c-.504-.21-.896-.175-1.178.106z" fill="#FF9A31"/></svg>