<svg width="14" height="15" fill="none" xmlns="http://www.w3.org/2000/svg"><path d="M3.816 15c-.225-.045-.456-.08-.676-.146C1.759 14.461.799 13.57.284 12.198c-.44-1.184-.357-2.354.181-3.483.21-.429.489-.82.823-1.154l6.344-6.522C8.347.303 9.214-.05 10.223.01c1.47.09 2.71 1.2 2.979 2.615.171.883-.04 1.694-.544 2.42-.138.193-.29.375-.456.544-1.675 1.729-3.36 3.448-5.026 5.182-.774.806-1.88.972-2.757.57-.691-.323-1.039-.898-1.088-1.67-.049-.77.216-1.355.73-1.88 1.445-1.471 2.885-2.953 4.325-4.43.348-.357.872-.242.995.222.063.247-.03.449-.201.62l-4.223 4.33c-.171.181-.328.363-.411.605-.304.882.382 1.3 1.009 1.23.295-.034.569-.174.774-.394l5.134-5.282c.343-.358.583-.771.646-1.285.064-.514-.112-1.054-.47-1.467-.877-.993-2.253-1.038-3.184-.09a2383.22 2383.22 0 00-6.383 6.562 3.178 3.178 0 00-.92 2.258 3.2 3.2 0 00.65 1.954c.425.557 1.021.95 1.69 1.115 1.142.268 2.132-.045 2.955-.897l6.51-6.719c.151-.156.313-.272.538-.241.1.01.195.05.276.11a.6.6 0 01.117.822c-.032.041-.067.08-.104.116l-6.53 6.744c-.626.65-1.366 1.073-2.238 1.25-.132.03-.27.05-.402.075h-.798z" fill="#0079C2"/></svg>