<svg width="23" height="23" fill="none" xmlns="http://www.w3.org/2000/svg"><path d="M16.5 13.5c-.75.75-1.25 1.438-1.5 2.063-.25.624-.75.937-1.5.937s-1.5-.313-2.25-.938C10.5 14.938 9.75 14.25 9 13.5c-.75-.75-1.438-1.5-2.063-2.25C6.313 10.5 6 9.75 6 9s.313-1.25.938-1.5S8.25 6.75 9 6c.375-.375.422-.898.14-1.57-.28-.672-.703-1.336-1.265-1.992A11.059 11.059 0 006.047.726C5.39.242 4.875 0 4.5 0s-.82.234-1.336.703c-.516.469-1.008.985-1.477 1.547A23.53 23.53 0 00.492 3.797L0 4.5c0 .75.172 1.656.516 2.719.359 1.078.82 2.187 1.382 3.328a32.393 32.393 0 001.922 3.258c.72 1.062 1.446 1.96 2.18 2.695.734.734 1.633 1.46 2.695 2.18a32.41 32.41 0 003.258 1.922c1.14.562 2.25 1.023 3.328 1.382 1.063.344 1.969.516 2.719.516l.703-.492c.469-.328.985-.727 1.547-1.195.563-.47 1.078-.961 1.547-1.477.469-.516.703-.961.703-1.336 0-.375-.242-.89-.727-1.547a11.054 11.054 0 00-1.71-1.828c-.657-.563-1.32-.984-1.993-1.266-.672-.28-1.195-.234-1.57.141z" fill="#FF9A31"/></svg>